<?xml version="1.0" encoding="UTF-8"?>
<svg id="Capa_1" data-name="Capa 1" xmlns="http://www.w3.org/2000/svg" viewBox="0 0 364.29 533.98">
  <defs>
    <style>
      .cls-1 {
        fill: #fff;
      }

      .cls-2 {
        fill: #fefefe;
      }
    </style>
  </defs>
  <path class="cls-2" d="M278.23,246.86c4.24,16.7,18,4.51,19.47,14.66.38,2.61-2.21,4.88-5.55,5.2-5.51.53-10.24-1.16-14.94-4.17l-.05,75.03h11.48s13.63-46.97,13.63-46.97l1.1-105.84c-5.36,6.77-12.08,10.01-19.97,9.78-2.87-.09-5.64-3.04-5.24-5.27,1.42-7.95,11.33-1.04,16.82-8.9,4.23-6.05,6.63-13.07,7.18-20.87-5.37,5.38-12.25,8.76-19.77,8.02-2.5-.25-4.54-3.53-4.21-5.26,1.45-7.62,10.73-1.84,16.01-7.67,5.4-5.95,8.59-13.62,7.93-22.31-7.76,10-23.86,9.59-24.72,3.05-.37-2.8,3.78-5.32,6.7-4.76,12.07,2.32,18.52-15.08,18.81-26.19l.66-25.31c.05-2.12,3.56-2.78,5-2.45,1.52.36,4.41,1.81,4.45,4.22l.42,25.72c.11,6.7,2.77,13.08,6.2,18.7,5.26,8.62,15.44,3.05,18.11,7.46.81,1.34,1.13,4.77-.75,5.64-8.74,4.04-17.83.68-23.65-7.17,0,8.21,2.56,15.34,6.74,21.65,2.6,3.93,7.5,5.21,12.09,4.89,3.35-.23,6.96,3.51,5.66,6.39-2.97,6.56-16.64,3.36-23.56-4.81-.35,8.27,2.63,15.03,6.95,21.46s12.14,1.76,16.11,6.13l16.41-51.28-38.88-28.69c-2.73-2.01,1.43-7.83,4.26-7.23l36.12,25.89c3.42,2.45,6.79,4.45,9.08,8.14l-37.28,114.64-13.81,42.32-15.02,45.98c-1.06,3.25-1.77,8.1-5.44,9.8l-94.96.43c-10.39,1.67-19.95.3-30.4.24l-98.16-.6L0,133.9c2.14-3.42,4.91-5.32,7.93-7.52l36.96-26.93c2.52-1.84,4.3-2.33,6.46-.39,1.94,1.74,2.72,4.78-.06,6.81l-40.8,29.76,18.24,56.14c1.09-11.74,11.8-3.69,17.01-10.48,4.8-6.25,7.1-13.66,7.42-21.8-5.14,5.15-11.57,8.47-18.72,8.05-2.98-.18-5.67-2.93-5.12-5.07.67-2.58,2.78-5.27,5.74-4.83,12.52,1.83,18.37-12.73,18.91-26.39-5.68,7.83-14.85,11.14-23.56,7.13-1.91-.88-1.55-4.3-.76-5.65,2.73-4.69,14.82,2.54,20.31-11.36,2.2-5.57,4.06-11.44,4.18-17.64l.44-23.53c.04-2.14,2.98-3.24,4.29-3.57s4.91.33,4.97,2.45l.72,25.17c.24,8.36,2.51,16.64,7.96,23.08,5.33,6.31,14.83.17,17.5,7.1.63,1.63-1.27,4.16-3.22,4.75-8.19,2.47-15.92-.26-21.52-6.83-.61,12.77,6.34,26.93,17.94,25.3,2.73-.39,4.94,1.8,5.8,3.82s-1.17,5.73-4.05,6.03c-7.49.8-14.41-2.66-19.68-7.93,1.34,12.79,6.24,26.94,17.98,25.08,2.8-.44,5.56,2.27,5.94,4.6s-2.3,5.03-5.31,5.32c-7.77.74-14.07-3.53-19.88-9.16l.84,115.03,10.59,37.23,15.8-.06-.29-75.46c-6.57,5.07-14.65,6.68-20.01,1.94-1.95-1.73-.44-4.49.57-5.5,4.19-4.2,15.61,1.72,17.82-11.24-4.93,1.55-9.12,4.24-13.68,3.05-2.94-.76-4.68-3-4.63-5.24.2-8.59,15.29.35,17.4-13.09-6.47,2.93-13.15,3.96-17.59-1.15-1.58-1.82.07-4.51,1.33-5.68,3.61-3.36,8.17,2.62,13.33-3.23,8.1-9.18,3.77-28.76,7.07-31.42,1.51-1.22,3.79-1.37,5.59-.42,1.58.83,2.47,3.12,2.05,5.42-.61,3.34.54,6.07.74,9.16.39,5.91.97,11.86,4.37,16.66,5.18,7.3,11.48-1.03,15.18,5.54,1.57,2.79-.33,5.32-3.5,6.71-4.59,2.02-9.25.45-14.51-2.31,3.19,14.3,17.08,5.23,18.37,14,.36,2.46-2.12,4.73-5.15,5.07-4.44.5-9.1-.91-13.35-3.56-.53,5.27,4.61,10.52,10.75,9.7,3.78-.51,6.3,1.21,8.48,4.23l15.55-9.18-.02-34.04c0-2.33,1.33-6.68,4.08-6.67l20.63.09c1.4,0,2.3,3.45,2.31,4.71l.17,19.35,13.11-8c3.47-2.12,5.68-1.37,8.87.48l55.64,32.25,5.1,4.07c.03-2.51-.05-4.24,1.02-5.76,2.57-3.62,15.2,3.23,18.09-11.45-4.62,2.56-9.46,4.76-14.53,3.72-2.69-.55-4.83-2.88-4.5-5.13.26-1.79,2.49-4.72,5.04-4.48,6.15.57,12.3-2.6,13.25-9.26-5.97,3.53-12.17,4.39-17.57.36-1.21-.91-.95-3.74-.25-4.93,3.37-5.72,6.43-.47,12.21-2.92,1.88-.8,3.59-3.16,4.72-6,5.83-14.57-1.19-27.97,7.11-28.55,9.81-.68,2.14,13.73,8.15,28.55,1.03,2.53,2.47,4.79,4.06,5.65,5.93,3.2,9.43-2.63,12.86,3.28.75,1.29.9,4.54-.72,5.54-5.37,3.34-11.42,2.33-16.92-.88,1.03,6.48,6.88,10.03,13.14,9.04,3.15-.5,4.63,2.09,4.94,4.64.26,2.13-1.63,4.48-4.48,5.1-4.88,1.05-9.31-1.06-14.5-3.51ZM325.36,223.34l9.23-28.75c-9.42,1.01-16.12-2.67-22.27-10.39l.03,77.75,13-38.61ZM28.85,191.96l25.05,77.15.2-83.76c-4.76,5.25-8.89,8.59-15.15,9.01-3.74,1.53-6.7-.81-10.1-2.4ZM155.29,239.24l-.1-19.47h-8.02s.06,24.17.06,24.17c3.1-.99,5.31-2.68,8.06-4.7ZM186.87,243.65l50.53,29.23c1.14-.73,1.42-3.86.37-4.81l-56.49-32.61-54.67,33.6c-.9,1.19-.65,4.05-.1,5.6l50.35-31.21c3.73-2.31,5.98-2.13,10.02.2ZM196.64,287.73c2.29,0,3.58,2.21,3.58,3.94l-.04,45.01h25.03s-.04-59.93-.04-59.93l-43.61-25.3-40.42,24.88.05,60.35h22.99s.08-45.86.08-45.86c0-1.83,2.3-3.18,3.89-3.17l28.49.08ZM122.42,287.49c-1.73.97-3.87.22-4.7-.74-.53-.61-1.39-1.89-1.41-3.21l-.15-16.95c-5.98.79-10.79-1.12-15.95-4.44l-.04,75.54h31.03s-.04-55.08-.04-55.08l-8.74,4.89ZM235.22,282.92l-.05,54.78h32.03s-.03-75.2-.03-75.2c-5.87,3.9-12.27,5.71-18.89,3l-.27,16.06c-.04,2.66-2.87,5.92-5.59,5s-4.58-3.1-7.2-3.64ZM191.19,296.69h-18v40h18v-40Z"/>
  <path class="cls-2" d="M182.22,11.16l-107.47,77.86c-2.83,2.05-4.86,2.51-7.07-.31-1.6-2.03-1.9-4.28,1.27-6.58L182.1,0l116.13,84.4c1.95,1.42,3.18,2.54,2.99,4.72-.11,1.31-1.46,3.06-3.1,4.07-1.47.91-3.53-.66-5.54-2.11L182.22,11.16Z"/>
  <path class="cls-2" d="M111.14,392.19l-18.68,65.62c-.77,2.69-2.49,3.99-4.75,4.01-2.49.02-3.89-1.38-4.66-3.99l-14.06-47.74-15.02,50.36c-.59,2-4.41,1.46-5.64.8-1.96-1.06-2.6-2.85-3.35-5.42l-17.79-61.14c-.9-3.09,1.08-5.65,3.48-6.06,2.83-.47,4.78.89,5.66,3.89l13.98,47.76,13.91-47.49c.66-2.25,1.77-4.01,3.5-4.22,1.41-.17,4.8.32,5.4,2.37l14.54,49.14,13.95-46.96c.74-2.5,2.1-4.12,4.1-4.49,1.51-.28,6.11,1.14,5.42,3.55Z"/>
  <path class="cls-2" d="M245.06,440.71c.33,5.8,4.5,9.19,8.55,11.18,10.71,5.26,18.31-5.41,22.11.78,1.01,1.65.53,4.64-1.72,5.86-10.98,5.93-24.17,4-32.43-4.66-8.2-8.59-10.42-21.95-3.67-32.26,5.07-7.75,12.69-12.46,20.88-13.04,9.3-.66,17.31,3.22,22.97,10.62,4.59,6.01,7.39,13.85,4.17,21.29l-40.85.24ZM277.41,432.49c-1.02-10.08-9.05-16.02-17.58-15.55s-15.64,6.87-15.76,15.73l33.34-.18Z"/>
  <path class="cls-2" d="M182.92,434.53c-.18-10.42-6.76-17.15-16.51-17.45s-16.85,7.2-16.93,17.03l-.19,22.62c-.02,2.92-1.36,4.54-3.69,5.04s-5.33-1.06-5.31-4.3l.23-45.23c.01-2.21,3.72-3.9,5.22-3.63,1.93.35,3.52,2.24,3.9,5.55,8.16-5.25,17.09-7.89,26.64-3.45,6.93,3.21,14.06,10.09,15.4,19.57l.43,28.3c.04,2.35-3.03,3.26-4.4,3.25-1.62-.02-4.34-.86-4.38-3.25l-.41-24.02Z"/>
  <path class="cls-2" d="M218.01,451.6c2.87,3.14,13.05.22,12.22,6.48-.37,2.76-2.18,3.3-5.17,3.72-7.55,1.06-15.64-3.18-17.26-11.91l-.99-32.49c-2.61,1.01-4.78,1.38-6.29.62-1.39-.71-3.75-2.97-2.96-4.85,1.44-3.44,5.13-4.33,9.3-3.17l.47-15.14c.09-2.83,2.05-4.41,4.35-4.34,2.18.06,4.5,1.32,4.51,4.13l.04,15.06c6.99-.68,12.91.22,12.95,4.49.01,1.66-2.35,3.9-4.4,4.01-2.82.14-5.44-1.01-8.59-.47v25.01c0,2.62-.4,6.42,1.82,8.83Z"/>
  <path class="cls-2" d="M191.31,530.23c-6.11-4.88-10.3-11.8-8.67-19.06,1.84-8.21,8.29-15.4,16.25-16.44,6.12-.8,11.11.42,16.13,3.39l.48-17.17c.04-1.49,2.92-1.63,3.97-1.13,1.1.52,2.84,1.72,2.82,3.89l-.44,33.72c-.09,6.71-6.11,11.81-10.58,14.25-6.42,3.51-14.38,3.01-19.95-1.44ZM215.1,512.33c-.92-8.31-8.32-12.72-15.19-11.37-7.47,1.47-10.78,8.13-9.83,15.98.82,6.77,7.82,11.29,14.13,10.23,7.04-1.18,11.76-7.06,10.9-14.85Z"/>
  <path class="cls-2" d="M159.05,200.54c-2.55,1.43-7.04-3.54-5.56-5.2,3.3-3.73,5.57-6.45,4.82-11.82-2.27-16.43-11.8-29.97-6.98-38.84,2.24-4.12,8.26-6.66,12.72-6.95,5.14-.34,9.28,3.42,10.61,6.96,2.01,5.37-.1,9.86-4.11,13.28-2.92,2.49-6,3.43-9.51.62,3.54,10.59,8.46,24.22,5.64,33.75-.98,3.32-4.7,6.54-7.63,8.19ZM165.79,150.01c1.39-1.22-.42-3.38-1.6-3.32-2.23.12-4.5,1.31-4.79,2.73-.43,2.12-.98,3.74.95,6.06.98-3.53,3.54-3.8,5.44-5.47Z"/>
  <path class="cls-2" d="M146.52,143.87c-2.46,9.57,3.8,14.64.73,18.44-1.51,1.87-5.68,2.35-7.29-.36-6.23-10.52-4.04-22.41,3.84-32.79-2.72.22-4.16,1.94-6.13,1.76-3.15-.29-9.34-6.4-9.62-10.79-.22-3.54,1.03-6.31,3.84-8.79,6.72-5.92,19.26-4.9,23.8,3.52,5.3,9.81-6.63,19.06-9.19,29.01ZM144.47,127.43c2.51-3.25,3.86-6.72,2.15-9.27-1.53-2.29-6.14-1.89-8.08-.08-.68.63-.55,2.49-.19,3.35,3.8.53,5.74,3.13,6.12,6.01Z"/>
  <path class="cls-2" d="M305.73,430.8l-.72,27.75c-.06,2.4-2.59,3.24-4.34,3.26-1.41.01-4.4-.9-4.4-3.24l.02-46.75c0-2.64,3.57-3.52,5.29-3.2,2.28.43,3.49,2.05,4,5.43,12.54-9.34,32.06-5.56,29.49,1.95-2.36,6.88-10.97-2.35-20.9,3.1-3.47,1.91-8.28,5.89-8.43,11.71Z"/>
  <path class="cls-2" d="M79.33,525.77c-.92-1.47.96-2.98,2.06-3.37,1.23-.44,2.59-.49,4.05,1.16,3.36,3.79,9.75,4.59,13.99,1.33,3.25-2.5,3.39-7.18,2.31-11.06s-4.83-5.45-9.18-6.53c-8.79-2.17-14.29-11.2-10.26-19.66,1.08-2.26,4.03-5.18,6.31-6.48,6.68-3.83,15.8-1.09,19.41,5.51-3.92,8.31-8.68-3.73-15.52-.27-2.68,1.36-4.75,4.28-4.3,7.67.37,2.81,2.5,5.92,6.25,6.46,9.93,1.43,17.94,11.59,15.04,21.22-2.05,6.81-7.65,11.05-13.01,11.88-7.13,1.1-13.02-1.29-17.16-7.85Z"/>
  <path class="cls-2" d="M171.13,500.15c0-2.86,1.83-4.25,3.63-4.54,2.06-.33,4.3,1.62,4.3,4.28v29.6c.02,2.19-1.82,4.18-3.38,4.28-1.86.12-3.55-1.05-4.97-3.38-6,3.83-13.21,4.98-19.81,1.39-5.3-2.89-10.77-8.79-10.65-16.05l.28-17.6c.03-1.97,3.04-2.74,4.24-2.56,5.51.81-.51,15.06,4.54,26.13,2.02,4.42,8.29,5.62,12.85,4.94,5.38-.81,9.04-5.63,9.02-10.9l-.05-15.6Z"/>
  <path class="cls-2" d="M281.24,514.62c0,10.69-8.67,19.36-19.36,19.36s-19.36-8.67-19.36-19.36,8.67-19.36,19.36-19.36,19.36,8.67,19.36,19.36ZM261.09,527.3c8.04.88,13.37-6.26,13.26-13.13s-6.46-13.18-13.82-12.35-10.88,6.73-10.56,14.09c.23,5.47,4.59,10.67,11.12,11.39Z"/>
  <path class="cls-2" d="M127.37,525.48c0,1.72,5.49.34,8.36,3.25.8.82.9,3.71-.19,4.2-4.35,1.98-8.7.82-11.87-2.05s-4.6-6.22-4.59-11.2l.03-18.08c-2.55.7-6.68-.27-6.68-2.93s4.21-3.59,6.59-2.88l.29-10.98c.05-1.95,2.11-3.02,3.43-3.19,2.02-.27,4,1.06,4.15,3.48l.67,10.81c2.14-.39,4.43-.25,5.69-.14s2.96,2.16,2.43,3.63c-.95,2.62-4.71,2.88-8.25,1.97l-.05,24.11Z"/>
  <path class="cls-2" d="M129.18,458.11c.02,2.85-3,3.68-4.49,3.69s-4.44-.9-4.43-3.25l.16-47.46c0-1.69,3.05-2.78,4.15-2.49,1.28.34,4.31,1.55,4.33,3.6l.3,45.9Z"/>
  <path class="cls-2" d="M260.37,169.58c-1.52,2.5-6.45,4.89-8.9,4.74-3.52-.22-6.29-3.13-9.07-4.85-.12-3.14-1.3-7.38.69-9.96,1.77-2.3,6.15-4.39,9.19-4.7,2.54.49,6.35,2.62,8.04,4.78,1.54,1.95,1.63,7.4.05,9.99Z"/>
  <path class="cls-2" d="M106.36,106.55l-8.03-5.31c-2.23-1.48-1.93-8.12.03-10.19,2.17-2.29,5.21-4.17,8.17-5.09,2.66,0,7.41,2.79,9.05,5.2,1.35,1.97,1.03,7.05.11,9.03-1.73,3.71-6.01,4.61-9.33,6.36Z"/>
  <path class="cls-2" d="M212.3,99.2c-3.05-.04-6.16-3.53-8.9-4.54-.39-4.01-.39-6.95-.01-10.84,2.72-1.47,5.55-4.66,8.87-4.63,2.21.02,6.77,2.38,8.01,4.27,2.04,3.12.77,7.43.74,11-2.56,1.57-5.16,4.33-8.7,4.73Z"/>
  <path class="cls-1" d="M235.27,529.2c0,2.41-1.13,3.56-2.58,3.58s-2.55-1.2-2.54-3.08l.07-32.81c1.77-.33,3.18-.33,4.93,0l.12,32.31Z"/>
  <path class="cls-2" d="M220.27,175.46c3.57-.49,7.08,3.06,7.13,5.75.07,3.68-2.82,6.61-6.05,7.22s-6.61-2.85-7.18-5.35c-.88-3.85,1.77-7.03,6.1-7.63Z"/>
  <path class="cls-2" d="M243.46,139.03c2.12,2.93.93,6.87-2.01,8.3-2.75,1.34-5.88,1.85-9.07-1.22-2.58-2.48-1.76-7.25,1.47-9.22,2.64-1.61,6.89-1.63,9.61,2.14Z"/>
  <path class="cls-2" d="M135.98,94.73c-3.4,2.21-8.55-3.38-8.86-5.63-.27-1.92.35-3.37,1.69-4.7,2.43-2.42,4.68-3.08,7.12-2.02,3.21,1.39,4.51,2.63,4.49,5.83s-1.51,4.62-4.44,6.52Z"/>
  <path class="cls-2" d="M100.31,117.04c3.44-1.18,7.4,1.84,7.89,4.19.8,3.86-.67,6.96-4.03,8.09-3.04,1.03-6.84-.71-7.72-3.41-1.15-3.53-.46-7.39,3.86-8.87Z"/>
  <path class="cls-2" d="M129.16,399.77c.69,3.02-2.09,5.14-4.92,5.42-2.23.22-5.04-3.36-3.77-6.08.9-1.93,2.58-2.59,4.14-2.4s4.08.99,4.55,3.07Z"/>
  <path class="cls-1" d="M234.77,487.01c1.09,1.03.33,2.64-.54,3.22-1.02.69-2.09.68-3.09,0-.87-.59-1.61-2.22-.54-3.22.72-.68,3.45-.68,4.16,0Z"/>
  <path class="cls-2" d="M172.85,279.57c-.63,4.5-4.28,6.44-7.09,6.25-3.52-.24-6.17-2.2-6.57-5.76-.35-3.11,1.48-7.12,5.68-8.08,3.37-.78,8.5,3.87,7.98,7.59Z"/>
  <path class="cls-2" d="M192.58,280.22c-1.08-3.53,3.59-8.36,7.01-8.15,4.06.24,6.22,3.41,6.58,6.23.46,3.65-1.61,6.41-4.74,7.23-3.54.93-7.31-.31-8.84-5.31Z"/>
  <path class="cls-2" d="M176.58,280.22c-1.08-3.53,3.59-8.36,7.01-8.15,4.06.24,6.22,3.41,6.58,6.23.46,3.65-1.61,6.41-4.74,7.23-3.54.93-7.31-.31-8.84-5.31Z"/>
</svg>